<mxfile host="65bd71144e">
    <diagram id="UKyGux9RliLSbUDZzkSg" name="Page-1">
        <mxGraphModel dx="828" dy="969" grid="1" gridSize="10" guides="1" tooltips="1" connect="1" arrows="1" fold="1" page="1" pageScale="1" pageWidth="850" pageHeight="1100" math="0" shadow="0">
            <root>
                <mxCell id="0"/>
                <mxCell id="1" parent="0"/>
                <mxCell id="2" value="Guest" style="whiteSpace=wrap;strokeWidth=2;fillColor=#ffcccc;strokeColor=#36393d;fontFamily=Verdana;fontStyle=1;fontSize=21;" vertex="1" parent="1">
                    <mxGeometry x="600" y="282.5" width="150" height="247.5" as="geometry"/>
                </mxCell>
                <mxCell id="5" value="Hypervisor" style="whiteSpace=wrap;strokeWidth=2;fillColor=#cce5ff;strokeColor=#36393d;fontFamily=Verdana;fontStyle=1;fontSize=19;" vertex="1" parent="1">
                    <mxGeometry x="90" y="282.5" width="150" height="247.5" as="geometry"/>
                </mxCell>
                <mxCell id="41" value="" style="group" vertex="1" connectable="0" parent="1">
                    <mxGeometry x="301" y="479" width="235" height="60" as="geometry"/>
                </mxCell>
                <mxCell id="42" value="" style="group" vertex="1" connectable="0" parent="41">
                    <mxGeometry x="7.5" width="220" height="30" as="geometry"/>
                </mxCell>
                <mxCell id="43" value="" style="group" vertex="1" connectable="0" parent="42">
                    <mxGeometry width="120" height="30" as="geometry"/>
                </mxCell>
                <mxCell id="44" value="" style="whiteSpace=wrap;strokeWidth=2;fontFamily=Verdana;fontStyle=1;fontSize=19;" vertex="1" parent="43">
                    <mxGeometry width="20" height="30" as="geometry"/>
                </mxCell>
                <mxCell id="45" value="" style="whiteSpace=wrap;strokeWidth=2;fontFamily=Verdana;fontStyle=1;fontSize=19;" vertex="1" parent="43">
                    <mxGeometry x="20" width="20" height="30" as="geometry"/>
                </mxCell>
                <mxCell id="46" value="" style="whiteSpace=wrap;strokeWidth=2;fontFamily=Verdana;fontStyle=1;fontSize=19;" vertex="1" parent="43">
                    <mxGeometry x="40" width="20" height="30" as="geometry"/>
                </mxCell>
                <mxCell id="47" value="" style="group" vertex="1" connectable="0" parent="43">
                    <mxGeometry x="60" width="60" height="30" as="geometry"/>
                </mxCell>
                <mxCell id="48" value="" style="whiteSpace=wrap;strokeWidth=2;fontFamily=Verdana;fontStyle=1;fontSize=19;" vertex="1" parent="47">
                    <mxGeometry width="20" height="30" as="geometry"/>
                </mxCell>
                <mxCell id="49" value="" style="whiteSpace=wrap;strokeWidth=2;fontFamily=Verdana;fontStyle=1;fontSize=19;" vertex="1" parent="47">
                    <mxGeometry x="20" width="20" height="30" as="geometry"/>
                </mxCell>
                <mxCell id="50" value="" style="whiteSpace=wrap;strokeWidth=2;fontFamily=Verdana;fontStyle=1;fontSize=19;" vertex="1" parent="47">
                    <mxGeometry x="40" width="20" height="30" as="geometry"/>
                </mxCell>
                <mxCell id="51" value="" style="group" vertex="1" connectable="0" parent="42">
                    <mxGeometry x="120" width="100" height="30" as="geometry"/>
                </mxCell>
                <mxCell id="52" value="" style="whiteSpace=wrap;strokeWidth=2;fontFamily=Verdana;fontStyle=1;fontSize=19;" vertex="1" parent="51">
                    <mxGeometry width="20" height="30" as="geometry"/>
                </mxCell>
                <mxCell id="53" value="" style="whiteSpace=wrap;strokeWidth=2;fontFamily=Verdana;fontStyle=1;fontSize=19;" vertex="1" parent="51">
                    <mxGeometry x="20" width="20" height="30" as="geometry"/>
                </mxCell>
                <mxCell id="54" value="" style="group" vertex="1" connectable="0" parent="51">
                    <mxGeometry x="40" width="60" height="30" as="geometry"/>
                </mxCell>
                <mxCell id="55" value="" style="whiteSpace=wrap;strokeWidth=2;fontFamily=Verdana;fontStyle=1;fontSize=19;" vertex="1" parent="54">
                    <mxGeometry width="20" height="30" as="geometry"/>
                </mxCell>
                <mxCell id="56" value="" style="whiteSpace=wrap;strokeWidth=2;fontFamily=Verdana;fontStyle=1;fontSize=19;" vertex="1" parent="54">
                    <mxGeometry x="20" width="20" height="30" as="geometry"/>
                </mxCell>
                <mxCell id="57" value="" style="whiteSpace=wrap;strokeWidth=2;fontFamily=Verdana;fontStyle=1;fontSize=19;" vertex="1" parent="54">
                    <mxGeometry x="40" width="20" height="30" as="geometry"/>
                </mxCell>
                <mxCell id="58" value="&lt;font face=&quot;Verdana&quot;&gt;&lt;span style=&quot;font-size: 19px;&quot;&gt;&lt;b style=&quot;font-size: 17px;&quot;&gt;Device's queue&lt;br&gt;&lt;/b&gt;&lt;/span&gt;&lt;/font&gt;" style="text;whiteSpace=wrap;html=1;align=center;" vertex="1" parent="41">
                    <mxGeometry y="30" width="235" height="30" as="geometry"/>
                </mxCell>
                <mxCell id="59" value="" style="rounded=0;orthogonalLoop=1;jettySize=auto;html=1;strokeWidth=4;endArrow=block;endFill=1;" edge="1" parent="1">
                    <mxGeometry relative="1" as="geometry">
                        <mxPoint x="590" y="305" as="sourcePoint"/>
                        <mxPoint x="535" y="305" as="targetPoint"/>
                    </mxGeometry>
                </mxCell>
                <mxCell id="60" value="" style="rounded=0;orthogonalLoop=1;jettySize=auto;html=1;strokeWidth=4;endArrow=block;endFill=1;" edge="1" parent="1">
                    <mxGeometry relative="1" as="geometry">
                        <mxPoint x="302.5" y="306" as="sourcePoint"/>
                        <mxPoint x="247.5" y="306" as="targetPoint"/>
                    </mxGeometry>
                </mxCell>
                <mxCell id="62" value="" style="rounded=0;orthogonalLoop=1;jettySize=auto;html=1;strokeWidth=4;endArrow=none;endFill=0;startArrow=block;startFill=1;" edge="1" parent="1">
                    <mxGeometry relative="1" as="geometry">
                        <mxPoint x="589.75" y="494" as="sourcePoint"/>
                        <mxPoint x="534.75" y="494" as="targetPoint"/>
                    </mxGeometry>
                </mxCell>
                <mxCell id="63" value="" style="rounded=0;orthogonalLoop=1;jettySize=auto;html=1;strokeWidth=4;endArrow=none;endFill=0;startArrow=block;startFill=1;" edge="1" parent="1">
                    <mxGeometry relative="1" as="geometry">
                        <mxPoint x="302.25" y="495" as="sourcePoint"/>
                        <mxPoint x="247.25" y="495" as="targetPoint"/>
                    </mxGeometry>
                </mxCell>
                <mxCell id="64" value="Guest's memory" style="whiteSpace=wrap;strokeWidth=2;fillColor=#e1d5e7;strokeColor=#9673a6;fontFamily=Verdana;fontStyle=1;fontSize=20;verticalAlign=top;" vertex="1" parent="1">
                    <mxGeometry x="280" y="370" width="290" height="60" as="geometry"/>
                </mxCell>
                <mxCell id="83" value="&lt;b style=&quot;border-color: var(--border-color); color: rgb(0, 0, 0); font-family: Verdana; font-style: normal; font-variant-ligatures: normal; font-variant-caps: normal; letter-spacing: normal; orphans: 2; text-align: center; text-indent: 0px; text-transform: none; widows: 2; word-spacing: 0px; -webkit-text-stroke-width: 0px; background-color: rgb(251, 251, 251); text-decoration-thickness: initial; text-decoration-style: initial; text-decoration-color: initial; font-size: 17px;&quot;&gt;requests&lt;br style=&quot;border-color: var(--border-color);&quot;&gt;&lt;/b&gt;" style="text;whiteSpace=wrap;html=1;fontSize=17;" vertex="1" parent="1">
                    <mxGeometry x="550" y="270" width="80" height="40" as="geometry"/>
                </mxCell>
                <mxCell id="84" value="&lt;b style=&quot;border-color: var(--border-color); color: rgb(0, 0, 0); font-family: Verdana; font-style: normal; font-variant-ligatures: normal; font-variant-caps: normal; letter-spacing: normal; orphans: 2; text-align: center; text-indent: 0px; text-transform: none; widows: 2; word-spacing: 0px; -webkit-text-stroke-width: 0px; background-color: rgb(251, 251, 251); text-decoration-thickness: initial; text-decoration-style: initial; text-decoration-color: initial; font-size: 17px;&quot;&gt;completions&lt;br style=&quot;border-color: var(--border-color);&quot;&gt;&lt;/b&gt;" style="text;whiteSpace=wrap;html=1;fontSize=17;" vertex="1" parent="1">
                    <mxGeometry x="161" y="461" width="80" height="40" as="geometry"/>
                </mxCell>
                <mxCell id="25" value="" style="group" vertex="1" connectable="0" parent="1">
                    <mxGeometry x="310" y="290" width="220" height="30" as="geometry"/>
                </mxCell>
                <mxCell id="17" value="" style="group" vertex="1" connectable="0" parent="25">
                    <mxGeometry width="120" height="30" as="geometry"/>
                </mxCell>
                <mxCell id="8" value="" style="whiteSpace=wrap;strokeWidth=2;fontFamily=Verdana;fontStyle=1;fontSize=19;" vertex="1" parent="17">
                    <mxGeometry width="20" height="30" as="geometry"/>
                </mxCell>
                <mxCell id="11" value="" style="whiteSpace=wrap;strokeWidth=2;fontFamily=Verdana;fontStyle=1;fontSize=19;" vertex="1" parent="17">
                    <mxGeometry x="20" width="20" height="30" as="geometry"/>
                </mxCell>
                <mxCell id="12" value="" style="whiteSpace=wrap;strokeWidth=2;fontFamily=Verdana;fontStyle=1;fontSize=19;" vertex="1" parent="17">
                    <mxGeometry x="40" width="20" height="30" as="geometry"/>
                </mxCell>
                <mxCell id="16" value="" style="group" vertex="1" connectable="0" parent="17">
                    <mxGeometry x="60" width="60" height="30" as="geometry"/>
                </mxCell>
                <mxCell id="13" value="" style="whiteSpace=wrap;strokeWidth=2;fontFamily=Verdana;fontStyle=1;fontSize=19;" vertex="1" parent="16">
                    <mxGeometry width="20" height="30" as="geometry"/>
                </mxCell>
                <mxCell id="14" value="" style="whiteSpace=wrap;strokeWidth=2;fontFamily=Verdana;fontStyle=1;fontSize=19;" vertex="1" parent="16">
                    <mxGeometry x="20" width="20" height="30" as="geometry"/>
                </mxCell>
                <mxCell id="15" value="" style="whiteSpace=wrap;strokeWidth=2;fontFamily=Verdana;fontStyle=1;fontSize=19;" vertex="1" parent="16">
                    <mxGeometry x="40" width="20" height="30" as="geometry"/>
                </mxCell>
                <mxCell id="24" value="" style="group" vertex="1" connectable="0" parent="25">
                    <mxGeometry x="120" width="100" height="30" as="geometry"/>
                </mxCell>
                <mxCell id="18" value="" style="whiteSpace=wrap;strokeWidth=2;fontFamily=Verdana;fontStyle=1;fontSize=19;" vertex="1" parent="24">
                    <mxGeometry width="20" height="30" as="geometry"/>
                </mxCell>
                <mxCell id="19" value="" style="whiteSpace=wrap;strokeWidth=2;fontFamily=Verdana;fontStyle=1;fontSize=19;" vertex="1" parent="24">
                    <mxGeometry x="20" width="20" height="30" as="geometry"/>
                </mxCell>
                <mxCell id="20" value="" style="group" vertex="1" connectable="0" parent="24">
                    <mxGeometry x="40" width="60" height="30" as="geometry"/>
                </mxCell>
                <mxCell id="21" value="" style="whiteSpace=wrap;strokeWidth=2;fontFamily=Verdana;fontStyle=1;fontSize=19;" vertex="1" parent="20">
                    <mxGeometry width="20" height="30" as="geometry"/>
                </mxCell>
                <mxCell id="22" value="" style="whiteSpace=wrap;strokeWidth=2;fontFamily=Verdana;fontStyle=1;fontSize=19;" vertex="1" parent="20">
                    <mxGeometry x="20" width="20" height="30" as="geometry"/>
                </mxCell>
                <mxCell id="23" value="" style="whiteSpace=wrap;strokeWidth=2;fontFamily=Verdana;fontStyle=1;fontSize=19;" vertex="1" parent="20">
                    <mxGeometry x="40" width="20" height="30" as="geometry"/>
                </mxCell>
                <mxCell id="26" value="&lt;font face=&quot;Verdana&quot;&gt;&lt;span style=&quot;font-size: 19px;&quot;&gt;&lt;b style=&quot;font-size: 17px;&quot;&gt;Driver's queue&lt;br&gt;&lt;br&gt;&lt;/b&gt;&lt;/span&gt;&lt;/font&gt;" style="text;whiteSpace=wrap;html=1;align=center;" vertex="1" parent="1">
                    <mxGeometry x="308" y="255" width="235" height="30" as="geometry"/>
                </mxCell>
                <mxCell id="90" value="" style="rounded=0;orthogonalLoop=1;jettySize=auto;html=1;strokeWidth=3;endArrow=none;endFill=0;startArrow=block;startFill=1;edgeStyle=orthogonalEdgeStyle;elbow=vertical;curved=1;strokeColor=#666666;dashed=1;dashPattern=1 2;" edge="1" parent="1" target="57">
                    <mxGeometry relative="1" as="geometry">
                        <mxPoint x="536" y="431" as="sourcePoint"/>
                        <mxPoint x="556" y="346" as="targetPoint"/>
                        <Array as="points">
                            <mxPoint x="536" y="461"/>
                            <mxPoint x="519" y="461"/>
                        </Array>
                    </mxGeometry>
                </mxCell>
                <mxCell id="89" value="" style="rounded=0;orthogonalLoop=1;jettySize=auto;html=1;strokeWidth=3;endArrow=none;endFill=0;startArrow=block;startFill=1;edgeStyle=orthogonalEdgeStyle;elbow=vertical;curved=1;strokeColor=#666666;dashed=1;dashPattern=1 2;entryX=0;entryY=0.5;entryDx=0;entryDy=0;" edge="1" parent="1">
                    <mxGeometry relative="1" as="geometry">
                        <mxPoint x="330" y="370" as="sourcePoint"/>
                        <mxPoint x="350" y="305" as="targetPoint"/>
                        <Array as="points">
                            <mxPoint x="330" y="305"/>
                        </Array>
                    </mxGeometry>
                </mxCell>
                <mxCell id="92" value="" style="rounded=0;orthogonalLoop=1;jettySize=auto;html=1;strokeWidth=3;endArrow=none;endFill=0;startArrow=block;startFill=1;edgeStyle=orthogonalEdgeStyle;elbow=vertical;curved=1;strokeColor=#666666;dashed=1;dashPattern=1 2;" edge="1" parent="1">
                    <mxGeometry relative="1" as="geometry">
                        <mxPoint x="518" y="431" as="sourcePoint"/>
                        <mxPoint x="501" y="479" as="targetPoint"/>
                        <Array as="points">
                            <mxPoint x="518" y="461"/>
                            <mxPoint x="501" y="461"/>
                        </Array>
                    </mxGeometry>
                </mxCell>
                <mxCell id="93" value="" style="rounded=0;orthogonalLoop=1;jettySize=auto;html=1;strokeWidth=3;endArrow=none;endFill=0;startArrow=block;startFill=1;edgeStyle=orthogonalEdgeStyle;elbow=vertical;curved=1;strokeColor=#666666;dashed=1;dashPattern=1 2;entryX=0;entryY=0.5;entryDx=0;entryDy=0;" edge="1" parent="1">
                    <mxGeometry relative="1" as="geometry">
                        <mxPoint x="308" y="371" as="sourcePoint"/>
                        <mxPoint x="328" y="306" as="targetPoint"/>
                        <Array as="points">
                            <mxPoint x="308" y="306"/>
                        </Array>
                    </mxGeometry>
                </mxCell>
                <mxCell id="94" value="&lt;font face=&quot;Verdana&quot; style=&quot;font-size: 17px;&quot;&gt;&lt;span style=&quot;font-size: 17px;&quot;&gt;&lt;b style=&quot;font-size: 17px;&quot;&gt;(shared memory)&lt;br style=&quot;font-size: 17px;&quot;&gt;&lt;/b&gt;&lt;/span&gt;&lt;/font&gt;" style="text;whiteSpace=wrap;html=1;align=center;fontSize=17;" vertex="1" parent="1">
                    <mxGeometry x="302.5" y="397" width="235" height="30" as="geometry"/>
                </mxCell>
                <mxCell id="96" value="" style="rounded=0;orthogonalLoop=1;jettySize=auto;html=1;strokeWidth=4;endArrow=none;endFill=0;startArrow=block;startFill=1;edgeStyle=orthogonalEdgeStyle;curved=1;entryX=0.5;entryY=1;entryDx=0;entryDy=0;" edge="1" parent="1">
                    <mxGeometry relative="1" as="geometry">
                        <mxPoint x="630" y="530" as="sourcePoint"/>
                        <mxPoint x="195" y="530" as="targetPoint"/>
                        <Array as="points">
                            <mxPoint x="630" y="580"/>
                            <mxPoint x="195" y="580"/>
                        </Array>
                    </mxGeometry>
                </mxCell>
                <mxCell id="117" value="&lt;b style=&quot;border-color: var(--border-color); color: rgb(0, 0, 0); font-family: Verdana; font-style: normal; font-variant-ligatures: normal; font-variant-caps: normal; letter-spacing: normal; orphans: 2; text-align: center; text-indent: 0px; text-transform: none; widows: 2; word-spacing: 0px; -webkit-text-stroke-width: 0px; background-color: rgb(251, 251, 251); text-decoration-thickness: initial; text-decoration-style: initial; text-decoration-color: initial; font-size: 17px;&quot;&gt;notification (interrupts)&lt;br style=&quot;border-color: var(--border-color);&quot;&gt;&lt;/b&gt;" style="text;whiteSpace=wrap;html=1;fontSize=17;" vertex="1" parent="1">
                    <mxGeometry x="366" y="553" width="80" height="40" as="geometry"/>
                </mxCell>
            </root>
        </mxGraphModel>
    </diagram>
</mxfile>